<?xml version="1.0" encoding="UTF-8" standalone="no"?>
<!-- Generator: Adobe Illustrator 18.1.0, SVG Export Plug-In . SVG Version: 6.00 Build 0)  -->

<svg
   xmlns:dc="http://purl.org/dc/elements/1.1/"
   xmlns:cc="http://creativecommons.org/ns#"
   xmlns:rdf="http://www.w3.org/1999/02/22-rdf-syntax-ns#"
   xmlns:svg="http://www.w3.org/2000/svg"
   xmlns="http://www.w3.org/2000/svg"
   xmlns:sodipodi="http://sodipodi.sourceforge.net/DTD/sodipodi-0.dtd"
   xmlns:inkscape="http://www.inkscape.org/namespaces/inkscape"
   version="1.1"
   x="0px"
   y="0px"
   viewBox="0 0 207.67193 29.2"
   enable-background="new 0 0 172.2 33.5"
   xml:space="preserve"
   id="svg2"
   inkscape:version="0.48.5 r10040"
   width="100%"
   height="100%"
   sodipodi:docname="img_logo_ripple_trade.svg"><metadata
     id="metadata55"><rdf:RDF><cc:Work
         rdf:about=""><dc:format>image/svg+xml</dc:format><dc:type
           rdf:resource="http://purl.org/dc/dcmitype/StillImage" /></cc:Work></rdf:RDF></metadata><defs
     id="defs53" /><sodipodi:namedview
     pagecolor="#ffffff"
     bordercolor="#666666"
     borderopacity="1"
     objecttolerance="10"
     gridtolerance="10"
     guidetolerance="10"
     inkscape:pageopacity="0"
     inkscape:pageshadow="2"
     inkscape:window-width="1279"
     inkscape:window-height="755"
     id="namedview51"
     showgrid="false"
     showguides="true"
     inkscape:guide-bbox="true"
     inkscape:snap-bbox="true"
     inkscape:snap-object-midpoints="true"
     inkscape:snap-center="true"
     inkscape:bbox-paths="true"
     inkscape:bbox-nodes="true"
     inkscape:snap-bbox-edge-midpoints="true"
     inkscape:snap-bbox-midpoints="true"
     inkscape:zoom="1.9337979"
     inkscape:cx="62.915315"
     inkscape:cy="35.234685"
     inkscape:window-x="0"
     inkscape:window-y="0"
     inkscape:window-maximized="0"
     inkscape:current-layer="g7"
     fit-margin-top="0"
     fit-margin-left="0"
     fit-margin-right="0"
     fit-margin-bottom="0"><sodipodi:guide
       orientation="0,1"
       position="89.999995,29.2"
       id="guide3036" /><sodipodi:guide
       orientation="0,1"
       position="140.2,6.3999998"
       id="guide3038" /></sodipodi:namedview><g
     id="Reference"
     transform="translate(-2.5,-2.1000002)" /><g
     id="Guides"
     transform="translate(-2.5,-2.1000002)" /><g
     id="Worklayer"
     transform="translate(-2.5,-2.1000002)"><g
       id="g7"><g
         id="g9"><g
           id="g11"><path
             d="M 34.1,24.7 V 9.9 h 4.3 v 1.3 c 0.3,-0.4 0.6,-0.6 1.1,-0.9 0.8,-0.5 1.7,-0.7 2.7,-0.7 0.3,0 0.5,0 0.7,0.1 0.2,0.1 0.5,0.1 0.6,0.1 l 0.3,0.1 v 4.3 L 43.4,14 c -0.3,-0.1 -0.6,-0.1 -0.8,-0.2 -0.3,-0.1 -0.5,-0.1 -0.8,-0.1 -0.7,0 -1.3,0.1 -1.7,0.4 -0.5,0.3 -0.8,0.6 -1,0.9 -0.3,0.3 -0.4,0.7 -0.5,1 -0.1,0.5 -0.1,0.6 -0.1,0.8 v 7.9 l -4.4,0 0,0 z"
             id="path13"
             inkscape:connector-curvature="0"
             style="fill:#232323" /><path
             d="M 45.8,24.7 V 9.9 h 4.3 v 14.8 h -4.3 z"
             id="path15"
             inkscape:connector-curvature="0"
             style="fill:#232323" /><path
             d="m 45.8,5.6 c 0,-0.6 0.2,-1 0.6,-1.5 0.4,-0.4 1,-0.6 1.6,-0.6 0.6,0 1.2,0.2 1.6,0.6 C 50,4.5 50.2,5 50.2,5.6 50.2,6.2 50.1,6.7 49.6,7 49.1,7.4 48.6,7.6 48,7.6 47.4,7.6 46.8,7.4 46.4,7 46,6.7 45.8,6.2 45.8,5.6 z"
             id="path17"
             inkscape:connector-curvature="0"
             style="fill:#232323" /><path
             d="M 52.9,31.3 V 9.9 H 57 v 1.4 c 0.5,-0.5 0.9,-0.8 1.5,-1.1 0.9,-0.4 1.9,-0.6 2.9,-0.6 1.1,0 2.1,0.2 3,0.6 0.9,0.4 1.7,1 2.3,1.7 0.6,0.7 1.1,1.5 1.5,2.4 0.3,0.9 0.5,1.9 0.5,3 0,1.1 -0.2,2.1 -0.5,3 -0.3,1 -0.8,1.7 -1.5,2.4 -0.6,0.7 -1.4,1.3 -2.3,1.7 -0.9,0.4 -1.9,0.6 -2.9,0.6 -0.7,0 -1.3,-0.1 -1.9,-0.2 -0.5,-0.1 -1,-0.3 -1.4,-0.6 -0.4,-0.3 -0.8,-0.5 -1,-0.7 l -0.1,-0.1 v 7.9 l -4.2,0 0,0 z m 7.9,-17.7 c -0.6,0 -1.1,0.1 -1.5,0.3 -0.5,0.2 -0.8,0.5 -1.2,0.8 -0.3,0.3 -0.6,0.8 -0.7,1.2 -0.2,0.5 -0.3,1 -0.3,1.4 0,0.5 0.1,1 0.3,1.4 0.2,0.5 0.4,0.8 0.7,1.2 0.3,0.3 0.7,0.6 1.2,0.8 0.5,0.2 1,0.3 1.5,0.3 0.5,0 1.1,-0.1 1.5,-0.3 0.5,-0.2 0.8,-0.5 1.2,-0.8 0.3,-0.3 0.6,-0.8 0.7,-1.2 0.2,-0.5 0.3,-1 0.3,-1.4 0,-0.5 -0.1,-1 -0.3,-1.4 -0.2,-0.5 -0.4,-0.8 -0.7,-1.2 -0.3,-0.3 -0.7,-0.6 -1.2,-0.8 -0.5,-0.2 -1,-0.3 -1.5,-0.3 z"
             id="path19"
             inkscape:connector-curvature="0"
             style="fill:#232323" /><path
             d="M 70.5,31.3 V 9.9 h 4.1 v 1.4 c 0.5,-0.5 0.9,-0.8 1.5,-1.1 C 77,9.8 78,9.6 79,9.6 c 1.1,0 2.1,0.2 3,0.6 0.9,0.4 1.7,1 2.3,1.7 0.6,0.7 1.1,1.5 1.5,2.4 0.3,0.9 0.5,1.9 0.5,3 0,1.1 -0.2,2.1 -0.5,3 -0.3,0.9 -0.8,1.7 -1.5,2.4 -0.6,0.7 -1.4,1.3 -2.3,1.7 -0.9,0.4 -1.9,0.6 -2.9,0.6 -0.7,0 -1.3,-0.1 -1.9,-0.2 -0.5,-0.1 -1,-0.3 -1.4,-0.6 -0.4,-0.3 -0.8,-0.5 -1.1,-0.7 l -0.1,-0.1 v 7.9 l -4.1,0 0,0 z m 7.9,-17.7 c -0.6,0 -1.1,0.1 -1.5,0.3 -0.5,0.2 -0.8,0.5 -1.2,0.8 -0.3,0.3 -0.6,0.8 -0.7,1.2 -0.2,0.5 -0.3,1 -0.3,1.4 0,0.5 0.1,1 0.3,1.4 0.2,0.5 0.4,0.8 0.7,1.2 0.3,0.3 0.7,0.6 1.2,0.8 0.5,0.2 1,0.3 1.5,0.3 0.6,0 1.1,-0.1 1.5,-0.3 0.5,-0.2 0.8,-0.5 1.2,-0.8 0.3,-0.3 0.6,-0.8 0.7,-1.2 0.2,-0.5 0.3,-1 0.3,-1.4 0,-0.5 -0.1,-1 -0.3,-1.4 -0.2,-0.5 -0.4,-0.8 -0.7,-1.2 -0.3,-0.3 -0.7,-0.6 -1.2,-0.8 -0.4,-0.2 -0.9,-0.3 -1.5,-0.3 z"
             id="path21"
             inkscape:connector-curvature="0"
             style="fill:#232323" /><rect
             x="88.199997"
             y="2.0999999"
             width="4.3000002"
             height="22.799999"
             id="rect23"
             style="fill:#232323" /><path
             d="m 102.2,25 c -1.1,0 -2.1,-0.2 -3.1,-0.6 -1,-0.4 -1.8,-0.9 -2.6,-1.5 -0.7,-0.7 -1.3,-1.5 -1.7,-2.4 -0.5,-1 -0.6,-2 -0.6,-3.2 0,-1.2 0.2,-2.3 0.6,-3.2 0.4,-1 1,-1.7 1.7,-2.4 0.7,-0.6 1.5,-1.2 2.6,-1.5 1,-0.4 2,-0.6 3.1,-0.6 1,0 2,0.2 2.8,0.5 0.8,0.4 1.6,0.9 2.2,1.5 0.6,0.7 1.1,1.5 1.4,2.5 0.3,1 0.5,2.1 0.5,3.4 v 1.4 H 98.6 c 0.1,0.7 0.5,1.3 1,1.7 0.6,0.5 1.4,0.8 2.3,0.8 0.8,0 1.5,-0.1 2,-0.5 0.5,-0.3 1,-0.8 1.4,-1.3 l 0.3,-0.3 3.2,2.4 -0.3,0.3 c -0.8,1 -1.8,1.8 -2.9,2.3 -1.1,0.5 -2.2,0.7 -3.4,0.7 z m 2.6,-9.5 c -0.1,-0.7 -0.3,-1.3 -0.8,-1.7 -0.5,-0.5 -1.3,-0.8 -2.3,-0.8 -1,0 -1.7,0.3 -2.2,0.8 -0.5,0.5 -0.8,1 -0.9,1.7 l 6.2,0 0,0 z"
             id="path25"
             inkscape:connector-curvature="0"
             style="fill:#232323" /></g><radialGradient
           id="SVGID_1_"
           cx="17.764099"
           cy="16.894899"
           r="13.4273"
           gradientUnits="userSpaceOnUse"><stop
             offset="0"
             style="stop-color:#4192B7"
             id="stop28" /><stop
             offset="1"
             style="stop-color:#3369A8"
             id="stop30" /></radialGradient><path
           d="m 25.4,20 c -1,-0.6 -2.1,-0.8 -3.2,-0.8 -0.4,0 -0.8,-0.1 -1.1,-0.3 -0.7,-0.4 -1.2,-1.2 -1.2,-2 0,-0.8 0.4,-1.6 1.2,-2 0.3,-0.2 0.7,-0.3 1.2,-0.3 1.1,0.1 2.2,-0.2 3.2,-0.8 1.8,-1 2.9,-3 2.9,-5.1 C 28.4,6.8 27.5,5 25.9,3.9 25.8,3.8 25.6,3.7 25.5,3.6 c -1.8,-1 -4,-1 -5.8,0 -1.8,1 -2.9,3 -2.9,5.1 0,1.1 0.3,2.2 0.9,3.1 0.2,0.4 0.3,0.8 0.3,1.2 0,0.8 -0.4,1.6 -1.2,2 -0.3,0.2 -0.7,0.3 -1.2,0.3 -0.4,0 -0.8,-0.1 -1.2,-0.3 -0.4,-0.2 -0.7,-0.5 -0.9,-0.9 -0.5,-1 -1.3,-1.8 -2.3,-2.4 -1.8,-1 -4,-1 -5.8,0 0,0 0,0 0,0 -1.8,1 -2.9,3 -2.9,5 0,2 1.1,3.9 2.8,5 0,0 0.1,0.1 0.1,0.1 1.8,1 4,1 5.8,0 1,-0.6 1.8,-1.4 2.3,-2.4 0.2,-0.4 0.5,-0.7 0.9,-0.9 0.3,-0.2 0.7,-0.3 1.2,-0.3 0.4,0 0.8,0.1 1.2,0.3 0.7,0.4 1.2,1.2 1.2,2 0,0.4 -0.1,0.8 -0.3,1.2 -0.6,0.9 -0.9,2 -0.9,3.1 0,2.1 1.1,4 2.9,5.1 1.8,1 4,1 5.8,0 0.2,-0.1 0.4,-0.2 0.5,-0.3 1.5,-1.1 2.4,-2.8 2.4,-4.7 -0.1,-2 -1.2,-3.9 -3,-4.9 z"
           id="path32"
           inkscape:connector-curvature="0"
           style="fill:url(#SVGID_1_)" /></g><g
         enable-background="new    "
         id="g34"><path
           d="m 116.7,23.6 c 0.8,0 1.6,-0.1 2.2,-0.2 v 1.1 c -0.6,0.2 -1.4,0.3 -2.2,0.3 -1.3,0 -2.2,-0.3 -2.9,-1 -0.6,-0.7 -0.9,-1.8 -0.9,-3.2 v -9.4 h -2.2 v -0.8 l 2.2,-0.6 0.7,-3.3 h 0.7 V 10 h 4.3 v 1.2 h -4.3 v 9.2 c 0,1.1 0.2,1.9 0.6,2.5 0.3,0.5 1,0.7 1.8,0.7 z"
           id="path36"
           inkscape:connector-curvature="0"
           style="fill:#336aaa" /><path
           d="m 126.5,9.7 c 0.6,0 1.3,0.1 2,0.2 l -0.3,1.3 C 127.6,11 127,11 126.3,11 c -1.2,0 -2.3,0.5 -3.1,1.6 -0.8,1.1 -1.2,2.4 -1.2,4 v 8.1 h -1.3 V 10 h 1.1 l 0.1,2.6 h 0.1 c 0.6,-1.1 1.2,-1.8 1.9,-2.3 0.7,-0.5 1.7,-0.6 2.6,-0.6 z"
           id="path38"
           inkscape:connector-curvature="0"
           style="fill:#336aaa" /><path
           d="m 139.1,24.6 -0.3,-2.3 h -0.1 c -0.7,0.9 -1.5,1.6 -2.3,2 -0.8,0.4 -1.7,0.6 -2.7,0.6 -1.4,0 -2.5,-0.4 -3.3,-1.1 -0.8,-0.7 -1.2,-1.7 -1.2,-3 0,-1.4 0.6,-2.5 1.8,-3.3 1.2,-0.8 2.9,-1.2 5.1,-1.2 l 2.8,-0.1 v -1 c 0,-1.4 -0.3,-2.4 -0.8,-3.1 -0.6,-0.7 -1.5,-1.1 -2.7,-1.1 -1.4,0 -2.8,0.4 -4.2,1.1 l -0.5,-1.2 c 1.6,-0.8 3.2,-1.1 4.8,-1.1 1.6,0 2.8,0.4 3.6,1.2 0.8,0.8 1.2,2.1 1.2,3.9 v 9.7 h -1.2 z m -5.4,-1 c 1.6,0 2.8,-0.4 3.7,-1.3 0.9,-0.9 1.3,-2.1 1.3,-3.7 v -1.4 l -2.6,0.1 c -2,0.1 -3.5,0.4 -4.4,1 -0.9,0.6 -1.3,1.4 -1.3,2.5 0,0.9 0.3,1.6 0.8,2.1 0.7,0.5 1.5,0.7 2.5,0.7 z"
           id="path40"
           inkscape:connector-curvature="0"
           style="fill:#336aaa" /><path
           d="m 148.9,9.7 c 1.1,0 2,0.2 2.7,0.6 0.7,0.4 1.5,1 2.1,2 h 0.1 C 153.7,11.2 153.7,10.1 153.7,9 V 3.7 h 1.3 v 20.9 h -0.9 l -0.3,-2.2 h -0.1 c -1.1,1.7 -2.7,2.5 -4.8,2.5 -2,0 -3.6,-0.6 -4.6,-1.9 -1.1,-1.3 -1.6,-3.1 -1.6,-5.5 0,-2.5 0.5,-4.5 1.6,-5.8 1,-1.3 2.6,-2 4.6,-2 z m 0,1.2 c -1.6,0 -2.8,0.6 -3.6,1.7 -0.8,1.1 -1.2,2.7 -1.2,4.9 0,4.1 1.6,6.2 4.8,6.2 1.6,0 2.9,-0.5 3.6,-1.4 0.8,-1 1.2,-2.5 1.2,-4.7 v -0.2 c 0,-2.3 -0.4,-3.9 -1.1,-4.9 -0.8,-1.1 -2,-1.6 -3.7,-1.6 z"
           id="path42"
           inkscape:connector-curvature="0"
           style="fill:#336aaa" /><path
           d="m 164.5,24.8 c -2.1,0 -3.8,-0.7 -5,-2 -1.2,-1.3 -1.8,-3.1 -1.8,-5.5 0,-2.3 0.6,-4.2 1.7,-5.6 1.1,-1.4 2.7,-2.1 4.6,-2.1 1.7,0 3.1,0.6 4.1,1.8 1,1.2 1.5,2.8 1.5,4.9 v 1.1 h -10.5 c 0,2 0.5,3.5 1.4,4.6 0.9,1.1 2.2,1.6 3.9,1.6 0.8,0 1.6,-0.1 2.2,-0.2 0.6,-0.1 1.4,-0.4 2.4,-0.8 v 1.2 c -0.8,0.4 -1.6,0.6 -2.3,0.7 -0.6,0.3 -1.3,0.3 -2.2,0.3 z m -0.4,-13.9 c -1.4,0 -2.5,0.5 -3.4,1.4 -0.9,0.9 -1.3,2.3 -1.5,4 h 9 c 0,-1.7 -0.4,-3 -1.1,-4 -0.7,-1 -1.7,-1.4 -3,-1.4 z"
           id="path44"
           inkscape:connector-curvature="0"
           style="fill:#336aaa" /></g><text
         xml:space="preserve"
         style="font-size:31.7276535px;font-style:normal;font-weight:normal;line-height:125%;letter-spacing:0px;word-spacing:0px;fill:#000000;fill-opacity:1;stroke:none;font-family:Sans"
         x="170.58983"
         y="25.167616"
         id="text3032"
         sodipodi:linespacing="125%"><tspan
           sodipodi:role="line"
           id="tspan3034"
           x="170.58983"
           y="25.167616"
           style="font-style:italic;font-variant:normal;font-weight:normal;font-stretch:normal;font-family:Open Sans;-inkscape-font-specification:Open Sans Italic">PH</tspan></text>
</g></g><g
     id="UserA"
     display="none"
     style="display:none"
     transform="translate(-2.5,-2.1000002)" /><g
     id="UserB"
     display="none"
     style="display:none"
     transform="translate(-2.5,-2.1000002)" /><g
     id="UserC"
     transform="translate(-2.5,-2.1000002)" /><g
     id="Layer_5"
     transform="translate(-2.5,-2.1000002)" /><g
     id="DD_x5F_Currencies"
     display="none"
     style="display:none"
     transform="translate(-2.5,-2.1000002)" /></svg>